<svg aria-hidden="true" style="position: absolute; width: 0; height: 0; overflow: hidden;" version="1.1" xmlns="http://www.w3.org/2000/svg" xmlns:xlink="http://www.w3.org/1999/xlink">
<defs>

<symbol id="icon-bookmark-o" viewBox="0 0 20 28">
<path d="M18 4h-16v19.406l8-7.672 1.391 1.328 6.609 6.344v-19.406zM18.188 2c0.234 0 0.469 0.047 0.688 0.141 0.688 0.266 1.125 0.906 1.125 1.609v20.141c0 0.703-0.438 1.344-1.125 1.609-0.219 0.094-0.453 0.125-0.688 0.125-0.484 0-0.938-0.172-1.297-0.5l-6.891-6.625-6.891 6.625c-0.359 0.328-0.812 0.516-1.297 0.516-0.234 0-0.469-0.047-0.688-0.141-0.688-0.266-1.125-0.906-1.125-1.609v-20.141c0-0.703 0.438-1.344 1.125-1.609 0.219-0.094 0.453-0.141 0.688-0.141h16.375z"></path>
</symbol>

<symbol id="icon-search" viewBox="0 0 24 24">
<path d="M16.041 15.856c-0.034 0.026-0.067 0.055-0.099 0.087s-0.060 0.064-0.087 0.099c-1.258 1.213-2.969 1.958-4.855 1.958-1.933 0-3.682-0.782-4.95-2.050s-2.050-3.017-2.050-4.95 0.782-3.682 2.050-4.95 3.017-2.050 4.95-2.050 3.682 0.782 4.95 2.050 2.050 3.017 2.050 4.95c0 1.886-0.745 3.597-1.959 4.856zM21.707 20.293l-3.675-3.675c1.231-1.54 1.968-3.493 1.968-5.618 0-2.485-1.008-4.736-2.636-6.364s-3.879-2.636-6.364-2.636-4.736 1.008-6.364 2.636-2.636 3.879-2.636 6.364 1.008 4.736 2.636 6.364 3.879 2.636 6.364 2.636c2.125 0 4.078-0.737 5.618-1.968l3.675 3.675c0.391 0.391 1.024 0.391 1.414 0s0.391-1.024 0-1.414z"></path>
</symbol>

<symbol id="icon-dots-three-horizontal" viewBox="0 0 20 20">
<path d="M10.001 7.8c-1.215 0-2.201 0.985-2.201 2.2s0.986 2.2 2.201 2.2c1.215 0 2.199-0.985 2.199-2.2s-0.984-2.2-2.199-2.2zM3.001 7.8c-1.215 0-2.201 0.985-2.201 2.2s0.986 2.2 2.201 2.2c1.215 0 2.199-0.986 2.199-2.2s-0.984-2.2-2.199-2.2zM17.001 7.8c-1.215 0-2.201 0.985-2.201 2.2s0.986 2.2 2.201 2.2c1.215 0 2.199-0.985 2.199-2.2s-0.984-2.2-2.199-2.2z"></path>
</symbol>

<symbol id="icon-compass" viewBox="0 0 20 20">
<path d="M5.454 14.548c0 0 4.568-0.627 6.518-2.576s2.576-6.518 2.576-6.518-4.569 0.627-6.518 2.576-2.576 6.518-2.576 6.518zM9.017 9.015c0.818-0.818 2.385-1.4 3.729-1.762-0.361 1.342-0.945 2.92-1.76 3.732-0.543 0.545-1.426 0.545-1.969 0-0.545-0.543-0.545-1.425 0-1.97zM10.001 0.4c-5.303 0-9.601 4.298-9.601 9.6 0 5.303 4.298 9.601 9.601 9.601 5.301 0 9.6-4.298 9.6-9.601s-4.299-9.6-9.6-9.6zM10 17.6c-4.197 0-7.6-3.402-7.6-7.6 0-4.197 3.402-7.6 7.6-7.6 4.197 0 7.601 3.402 7.601 7.6 0 4.197-3.404 7.6-7.601 7.6z"></path>
</symbol>

<symbol id="icon-heart-outlined" viewBox="0 0 19 19">
<path d="M17.19 4.156c-1.672-1.535-4.383-1.535-6.055 0l-1.135 1.041-1.136-1.041c-1.672-1.535-4.382-1.535-6.054 0-1.881 1.726-1.881 4.519 0 6.245l7.19 6.599 7.19-6.599c1.88-1.726 1.88-4.52 0-6.245zM16.124 9.375l-6.124 5.715-6.125-5.715c-0.617-0.567-0.856-1.307-0.856-2.094s0.138-1.433 0.756-1.999c0.545-0.501 1.278-0.777 2.063-0.777s1.517 0.476 2.062 0.978l2.1 1.825 2.099-1.826c0.546-0.502 1.278-0.978 2.063-0.978s1.518 0.276 2.063 0.777c0.618 0.566 0.755 1.212 0.755 1.999s-0.238 1.528-0.856 2.095z"></path>
</symbol>

<symbol id="icon-heart" viewBox="0 0 19 19">
<path d="M17.19 4.155c-1.672-1.534-4.383-1.534-6.055 0l-1.135 1.042-1.136-1.042c-1.672-1.534-4.382-1.534-6.054 0-1.881 1.727-1.881 4.52 0 6.246l7.19 6.599 7.19-6.599c1.88-1.726 1.88-4.52 0-6.246z"></path>
</symbol>

<symbol id="icon-menu" viewBox="0 0 20 20">
<path d="M16.4 9h-12.8c-0.552 0-0.6 0.447-0.6 1s0.048 1 0.6 1h12.8c0.552 0 0.6-0.447 0.6-1s-0.048-1-0.6-1zM16.4 13h-12.8c-0.552 0-0.6 0.447-0.6 1s0.048 1 0.6 1h12.8c0.552 0 0.6-0.447 0.6-1s-0.048-1-0.6-1zM3.6 7h12.8c0.552 0 0.6-0.447 0.6-1s-0.048-1-0.6-1h-12.8c-0.552 0-0.6 0.447-0.6 1s0.048 1 0.6 1z"></path>
</symbol>

<symbol id="icon-emoji-happy" viewBox="0 0 20 20">
<path d="M10 0.4c-5.302 0-9.6 4.298-9.6 9.6s4.298 9.6 9.6 9.6c5.301 0 9.6-4.298 9.6-9.601 0-5.301-4.299-9.599-9.6-9.599zM10 17.599c-4.197 0-7.6-3.402-7.6-7.6s3.402-7.599 7.6-7.599c4.197 0 7.601 3.402 7.601 7.6s-3.404 7.599-7.601 7.599zM7.501 9.75c0.828 0 1.499-0.783 1.499-1.75s-0.672-1.75-1.5-1.75-1.5 0.783-1.5 1.75 0.672 1.75 1.501 1.75zM12.5 9.75c0.829 0 1.5-0.783 1.5-1.75s-0.672-1.75-1.5-1.75-1.5 0.784-1.5 1.75 0.672 1.75 1.5 1.75zM14.341 11.336c-0.363-0.186-0.815-0.043-1.008 0.32-0.034 0.066-0.869 1.593-3.332 1.593-2.451 0-3.291-1.513-3.333-1.592-0.188-0.365-0.632-0.514-1.004-0.329-0.37 0.186-0.52 0.636-0.335 1.007 0.050 0.099 1.248 2.414 4.672 2.414 3.425 0 4.621-2.316 4.67-2.415 0.184-0.367 0.036-0.81-0.33-0.998z"></path>
</symbol>

<!-- OTHER SOURCES -->
<symbol id="icon-reels" viewBox="0 0 135 135">
<path d="M35.14,0H87c9.65,0,18.43,3.96,24.8,10.32c6.38,6.37,10.34,15.16,10.34,24.82v52.61c0,9.64-3.96,18.42-10.32,24.79 l-0.02,0.02c-6.38,6.37-15.16,10.32-24.79,10.32H35.14c-9.66,0-18.45-3.96-24.82-10.32l-0.24-0.27C3.86,105.95,0,97.27,0,87.74 V35.14c0-9.67,3.95-18.45,10.32-24.82S25.47,0,35.14,0L35.14,0z M91.51,31.02l0.07,0.11h21.6c-0.87-5.68-3.58-10.78-7.48-14.69 C100.9,11.64,94.28,8.66,87,8.66h-8.87L91.51,31.02L91.51,31.02z M81.52,31.13L68.07,8.66H38.57l13.61,22.47H81.52L81.52,31.13z M42.11,31.13L28.95,9.39c-4.81,1.16-9.12,3.65-12.51,7.05c-3.9,3.9-6.6,9.01-7.48,14.69H42.11L42.11,31.13z M113.48,39.79H8.66 v47.96c0,7.17,2.89,13.7,7.56,18.48l0.22,0.21c4.8,4.8,11.43,7.79,18.7,7.79H87c7.28,0,13.9-2.98,18.69-7.77l0.02-0.02 c4.79-4.79,7.77-11.41,7.77-18.69V39.79L113.48,39.79z M50.95,54.95l26.83,17.45c0.43,0.28,0.82,0.64,1.13,1.08 c1.22,1.77,0.77,4.2-1,5.42L51.19,94.67c-0.67,0.55-1.53,0.88-2.48,0.88c-2.16,0-3.91-1.75-3.91-3.91V58.15h0.02 c0-0.77,0.23-1.55,0.7-2.23C46.76,54.15,49.19,53.72,50.95,54.95L50.95,54.95L50.95,54.95z"/>
</symbol>

<symbol id="icon-home" viewBox="0 0 24 24">
<path d="M20,10V21a1,1,0,0,1-1,1H15.5a1,1,0,0,1-1-1V16.1a1,1,0,0,0-1-1h-3a1,1,0,0,0-1,1V21a1,1,0,0,1-1,1H5a1,1,0,0,1-1-1V10a1,1,0,0,1,.29-.71l7-7a1,1,0,0,1,1.42,0l7,7A1,1,0,0,1,20,10Z"></path>
</symbol>

<symbol id="icon-comment" viewBox="0 0 100 100">
<path d="M 86.999 90 c -0.367 0 -0.737 -0.067 -1.092 -0.206 l -17.016 -6.655 C 61.734 87.633 53.509 90 45 90 C 20.187 90 0 69.813 0 45 C 0 20.187 20.187 0 45 0 c 24.813 0 45 20.187 45 45 c 0 8.509 -2.367 16.734 -6.861 23.892 l 6.655 17.016 c 0.434 1.11 0.17 2.371 -0.673 3.214 C 88.548 89.694 87.78 90 86.999 90 Z M 45 6 C 23.495 6 6 23.495 6 45 s 17.495 39 39 39 c 7.839 0 15.398 -2.317 21.862 -6.7 c 0.818 -0.555 1.855 -0.671 2.776 -0.312 l 12.07 4.721 l -4.721 -12.07 c -0.36 -0.92 -0.243 -1.959 0.312 -2.776 C 81.683 60.398 84 52.839 84 45 C 84 23.495 66.505 6 45 6 z"></path>
</symbol>

<symbol id="icon-send" viewBox="0 0 110 110">
<path d="M 31.121 43.543 c -0.852 0 -1.689 -0.362 -2.275 -1.042 L 0.727 9.836 C -0.051 8.934 -0.22 7.656 0.295 6.581 c 0.516 -1.074 1.607 -1.748 2.81 -1.7 l 84 2.952 c 1.356 0.047 2.513 1 2.817 2.324 c 0.306 1.323 -0.315 2.686 -1.515 3.323 l -55.88 29.712 C 32.083 43.429 31.6 43.543 31.121 43.543 Z M 9.747 11.118 l 22.082 25.65 L 75.71 13.436 L 9.747 11.118 z">
</path>
<path d="M 42.475 85.121 c -0.145 0 -0.291 -0.011 -0.437 -0.032 c -1.179 -0.173 -2.144 -1.027 -2.458 -2.178 L 28.226 41.333 c -0.37 -1.353 0.248 -2.781 1.486 -3.439 l 55.88 -29.712 c 1.196 -0.637 2.676 -0.39 3.602 0.603 c 0.927 0.993 1.07 2.484 0.352 3.636 L 45.019 83.71 C 44.466 84.596 43.5 85.121 42.475 85.121 Z M 34.646 42.066 l 8.917 32.651 l 34.965 -55.983 L 34.646 42.066 z"></path>
</symbol>

<symbol id="icon-post" viewBox="0 0 49 49">
<path d="M 46.8672 9.2617 C 44.4766 6.8711 41.1016 6.4961 37.1172 6.4961 L 18.8360 6.4961 C 14.8985 6.4961 11.5235 6.8711 9.1329 9.2617 C 6.7422 11.6523 6.3907 15.0039 6.3907 18.9180 L 6.3907 37.0118 C 6.3907 41.0195 6.7422 44.3477 9.1329 46.7383 C 11.5235 49.1289 14.8985 49.5039 18.9063 49.5039 L 37.1172 49.5039 C 41.1016 49.5039 44.4766 49.1289 46.8672 46.7383 C 49.2580 44.3477 49.6093 41.0195 49.6093 37.0118 L 49.6093 18.9883 C 49.6093 14.9805 49.2580 11.6289 46.8672 9.2617 Z M 45.8360 18.3320 L 45.8360 37.6445 C 45.8360 40.0820 45.5313 42.5664 44.1251 43.9961 C 42.6953 45.4024 40.1641 45.7305 37.7500 45.7305 L 18.2500 45.7305 C 15.8360 45.7305 13.3048 45.4024 11.8985 43.9961 C 10.4688 42.5664 10.1641 40.0820 10.1641 37.6445 L 10.1641 18.4023 C 10.1641 15.9414 10.4688 13.4102 11.8751 12.0039 C 13.3048 10.5742 15.8594 10.2696 18.3204 10.2696 L 37.7500 10.2696 C 40.1641 10.2696 42.6953 10.5977 44.1251 12.0039 C 45.5313 13.4336 45.8360 15.9180 45.8360 18.3320 Z M 28.0000 40.5039 C 28.9375 40.5039 29.6875 39.7774 29.6875 38.8398 L 29.6875 29.6758 L 38.8516 29.6758 C 39.7891 29.6758 40.5391 28.8789 40.5391 28.0118 C 40.5391 27.0977 39.7891 26.3242 38.8516 26.3242 L 29.6875 26.3242 L 29.6875 17.1367 C 29.6875 16.1992 28.9375 15.4727 28.0000 15.4727 C 27.0626 15.4727 26.3360 16.1992 26.3360 17.1367 L 26.3360 26.3242 L 17.1719 26.3242 C 16.2344 26.3242 15.4844 27.0977 15.4844 28.0118 C 15.4844 28.8789 16.2344 29.6758 17.1719 29.6758 L 26.3360 29.6758 L 26.3360 38.8398 C 26.3360 39.7774 27.0626 40.5039 28.0000 40.5039 Z"></path>
</symbol>

<symbol id="icon-threads" viewBox="0 0 192 192">
<path d="M 141.537 88.9883 C 140.71 88.5919 139.87 88.2104 139.019 87.8451 C 137.537 60.5382 122.616 44.905 97.5619 44.745 C 97.4484 44.7443 97.3355 44.7443 97.222 44.7443 C 82.2364 44.7443 69.7731 51.1409 62.102 62.7807 L 75.881 72.2328 C 81.6116 63.5383 90.6052 61.6848 97.2286 61.6848 C 97.3051 61.6848 97.3819 61.6848 97.4576 61.6855 C 105.707 61.7381 111.932 64.1366 115.961 68.814 C 118.893 72.2193 120.854 76.925 121.825 82.8638 C 114.511 81.6207 106.601 81.2385 98.145 81.7233 C 74.3247 83.0954 59.0111 96.9879 60.0396 116.292 C 60.5615 126.084 65.4397 134.508 73.775 140.011 C 80.8224 144.663 89.899 146.938 99.3323 146.423 C 111.79 145.74 121.563 140.987 128.381 132.296 C 133.559 125.696 136.834 117.143 138.28 106.366 C 144.217 109.949 148.617 114.664 151.047 120.332 C 155.179 129.967 155.42 145.8 142.501 158.708 C 131.182 170.016 117.576 174.908 97.0135 175.059 C 74.2042 174.89 56.9538 167.575 45.7381 153.317 C 35.2355 139.966 29.8077 120.682 29.6052 96 C 29.8077 71.3178 35.2355 52.0336 45.7381 38.6827 C 56.9538 24.4249 74.2039 17.11 97.0132 16.9405 C 119.988 17.1113 137.539 24.4614 149.184 38.788 C 154.894 45.8136 159.199 54.6488 162.037 64.9503 L 178.184 60.6422 C 174.744 47.9622 169.331 37.0357 161.965 27.974 C 147.036 9.60668 125.202 0.195148 97.0695 0 H 96.9569 C 68.8816 0.19447 47.2921 9.6418 32.7883 28.0793 C 19.8819 44.4864 13.2244 67.3157 13.0007 95.9325 L 13 96 L 13.0007 96.0675 C 13.2244 124.684 19.8819 147.514 32.7883 163.921 C 47.2921 182.358 68.8816 191.806 96.9569 192 H 97.0695 C 122.03 191.827 139.624 185.292 154.118 170.811 C 173.081 151.866 172.51 128.119 166.26 113.541 C 161.776 103.087 153.227 94.5962 141.537 88.9883 Z M 98.4405 129.507 C 88.0005 130.095 77.1544 125.409 76.6196 115.372 C 76.2232 107.93 81.9158 99.626 99.0812 98.6368 C 101.047 98.5234 102.976 98.468 104.871 98.468 C 111.106 98.468 116.939 99.0737 122.242 100.233 C 120.264 124.935 108.662 128.946 98.4405 129.507 Z"></path>
</symbol>

<symbol id="icon-follow" viewBox="0 0 32 32">
<polygon points="32 14 28 14 28 10 26 10 26 14 22 14 22 16 26 16 26 20 28 20 28 16 32 16 32 14"></polygon><path d="M12,4A5,5,0,1,1,7,9a5,5,0,0,1,5-5m0-2a7,7,0,1,0,7,7A7,7,0,0,0,12,2Z" transform="translate(0 0)"></path><path d="M22,30H20V25a5,5,0,0,0-5-5H9a5,5,0,0,0-5,5v5H2V25a7,7,0,0,1,7-7h6a7,7,0,0,1,7,7Z" transform="translate(0 0)"></path>
</symbol>

<symbol id="icon-ig" viewBox="0 0 24 24">
<svg ><path d="M12 2.163c3.204 0 3.584.012 4.85.07 3.252.148 4.771 1.691 4.919 4.919.058 1.265.069 1.645.069 4.849 0 3.205-.012 3.584-.069 4.849-.149 3.225-1.664 4.771-4.919 4.919-1.266.058-1.644.07-4.85.07-3.204 0-3.584-.012-4.849-.07-3.26-.149-4.771-1.699-4.919-4.92-.058-1.265-.07-1.644-.07-4.849 0-3.204.013-3.583.07-4.849.149-3.227 1.664-4.771 4.919-4.919 1.266-.057 1.645-.069 4.849-.069zm0-2.163c-3.259 0-3.667.014-4.947.072-4.358.2-6.78 2.618-6.98 6.98-.059 1.281-.073 1.689-.073 4.948 0 3.259.014 3.668.072 4.948.2 4.358 2.618 6.78 6.98 6.98 1.281.058 1.689.072 4.948.072 3.259 0 3.668-.014 4.948-.072 4.354-.2 6.782-2.618 6.979-6.98.059-1.28.073-1.689.073-4.948 0-3.259-.014-3.667-.072-4.947-.196-4.354-2.617-6.78-6.979-6.98-1.281-.059-1.69-.073-4.949-.073zm0 5.838c-3.403 0-6.162 2.759-6.162 6.162s2.759 6.163 6.162 6.163 6.162-2.759 6.162-6.163c0-3.403-2.759-6.162-6.162-6.162zm0 10.162c-2.209 0-4-1.79-4-4 0-2.209 1.791-4 4-4s4 1.791 4 4c0 2.21-1.791 4-4 4zm6.406-11.845c-.796 0-1.441.645-1.441 1.44s.645 1.44 1.441 1.44c.795 0 1.439-.645 1.439-1.44s-.644-1.44-1.439-1.44z"/></svg>
</symbol>

</defs>
</svg>
